<?xml version="1.0" standalone="no"?>
<svg xmlns="http://www.w3.org/2000/svg" version="1.1" width="990" height="990">
	<!-- Created with https://api.qrserver.com (QR Code API, see goQR.me/api for information) -->
	<title>QR Code</title>
	<desc>https://jacktaz8902-eng.github.io/pyojeongwon-official-phone/</desc>
	<rect style="fill:rgb(255, 255, 255);fill-opacity:1" x="0" y="0" width="990" height="990" />
	<g id="elements">
		<path style="fill:rgb(0, 0, 0)" d="M 0,0 l 22,0 0,22 -22,0 z M 22,0 l 22,0 0,22 -22,0 z M 44,0 l 22,0 0,22 -22,0 z M 66,0 l 22,0 0,22 -22,0 z M 88,0 l 22,0 0,22 -22,0 z M 110,0 l 22,0 0,22 -22,0 z M 132,0 l 22,0 0,22 -22,0 z M 176,0 l 22,0 0,22 -22,0 z M 242,0 l 22,0 0,22 -22,0 z M 264,0 l 22,0 0,22 -22,0 z M 286,0 l 22,0 0,22 -22,0 z M 308,0 l 22,0 0,22 -22,0 z M 330,0 l 22,0 0,22 -22,0 z M 352,0 l 22,0 0,22 -22,0 z M 374,0 l 22,0 0,22 -22,0 z M 396,0 l 22,0 0,22 -22,0 z M 418,0 l 22,0 0,22 -22,0 z M 506,0 l 22,0 0,22 -22,0 z M 528,0 l 22,0 0,22 -22,0 z M 616,0 l 22,0 0,22 -22,0 z M 638,0 l 22,0 0,22 -22,0 z M 660,0 l 22,0 0,22 -22,0 z M 682,0 l 22,0 0,22 -22,0 z M 704,0 l 22,0 0,22 -22,0 z M 792,0 l 22,0 0,22 -22,0 z M 836,0 l 22,0 0,22 -22,0 z M 858,0 l 22,0 0,22 -22,0 z M 880,0 l 22,0 0,22 -22,0 z M 902,0 l 22,0 0,22 -22,0 z M 924,0 l 22,0 0,22 -22,0 z M 946,0 l 22,0 0,22 -22,0 z M 968,0 l 22,0 0,22 -22,0 z M 0,22 l 22,0 0,22 -22,0 z M 132,22 l 22,0 0,22 -22,0 z M 176,22 l 22,0 0,22 -22,0 z M 330,22 l 22,0 0,22 -22,0 z M 352,22 l 22,0 0,22 -22,0 z M 396,22 l 22,0 0,22 -22,0 z M 462,22 l 22,0 0,22 -22,0 z M 528,22 l 22,0 0,22 -22,0 z M 550,22 l 22,0 0,22 -22,0 z M 572,22 l 22,0 0,22 -22,0 z M 594,22 l 22,0 0,22 -22,0 z M 616,22 l 22,0 0,22 -22,0 z M 726,22 l 22,0 0,22 -22,0 z M 770,22 l 22,0 0,22 -22,0 z M 836,22 l 22,0 0,22 -22,0 z M 968,22 l 22,0 0,22 -22,0 z M 0,44 l 22,0 0,22 -22,0 z M 44,44 l 22,0 0,22 -22,0 z M 66,44 l 22,0 0,22 -22,0 z M 88,44 l 22,0 0,22 -22,0 z M 132,44 l 22,0 0,22 -22,0 z M 176,44 l 22,0 0,22 -22,0 z M 242,44 l 22,0 0,22 -22,0 z M 286,44 l 22,0 0,22 -22,0 z M 308,44 l 22,0 0,22 -22,0 z M 330,44 l 22,0 0,22 -22,0 z M 352,44 l 22,0 0,22 -22,0 z M 374,44 l 22,0 0,22 -22,0 z M 396,44 l 22,0 0,22 -22,0 z M 462,44 l 22,0 0,22 -22,0 z M 484,44 l 22,0 0,22 -22,0 z M 550,44 l 22,0 0,22 -22,0 z M 572,44 l 22,0 0,22 -22,0 z M 594,44 l 22,0 0,22 -22,0 z M 638,44 l 22,0 0,22 -22,0 z M 660,44 l 22,0 0,22 -22,0 z M 682,44 l 22,0 0,22 -22,0 z M 704,44 l 22,0 0,22 -22,0 z M 770,44 l 22,0 0,22 -22,0 z M 836,44 l 22,0 0,22 -22,0 z M 880,44 l 22,0 0,22 -22,0 z M 902,44 l 22,0 0,22 -22,0 z M 924,44 l 22,0 0,22 -22,0 z M 968,44 l 22,0 0,22 -22,0 z M 0,66 l 22,0 0,22 -22,0 z M 44,66 l 22,0 0,22 -22,0 z M 66,66 l 22,0 0,22 -22,0 z M 88,66 l 22,0 0,22 -22,0 z M 132,66 l 22,0 0,22 -22,0 z M 198,66 l 22,0 0,22 -22,0 z M 242,66 l 22,0 0,22 -22,0 z M 264,66 l 22,0 0,22 -22,0 z M 286,66 l 22,0 0,22 -22,0 z M 330,66 l 22,0 0,22 -22,0 z M 374,66 l 22,0 0,22 -22,0 z M 462,66 l 22,0 0,22 -22,0 z M 528,66 l 22,0 0,22 -22,0 z M 572,66 l 22,0 0,22 -22,0 z M 616,66 l 22,0 0,22 -22,0 z M 682,66 l 22,0 0,22 -22,0 z M 704,66 l 22,0 0,22 -22,0 z M 726,66 l 22,0 0,22 -22,0 z M 770,66 l 22,0 0,22 -22,0 z M 792,66 l 22,0 0,22 -22,0 z M 836,66 l 22,0 0,22 -22,0 z M 880,66 l 22,0 0,22 -22,0 z M 902,66 l 22,0 0,22 -22,0 z M 924,66 l 22,0 0,22 -22,0 z M 968,66 l 22,0 0,22 -22,0 z M 0,88 l 22,0 0,22 -22,0 z M 44,88 l 22,0 0,22 -22,0 z M 66,88 l 22,0 0,22 -22,0 z M 88,88 l 22,0 0,22 -22,0 z M 132,88 l 22,0 0,22 -22,0 z M 242,88 l 22,0 0,22 -22,0 z M 352,88 l 22,0 0,22 -22,0 z M 374,88 l 22,0 0,22 -22,0 z M 396,88 l 22,0 0,22 -22,0 z M 418,88 l 22,0 0,22 -22,0 z M 440,88 l 22,0 0,22 -22,0 z M 462,88 l 22,0 0,22 -22,0 z M 484,88 l 22,0 0,22 -22,0 z M 506,88 l 22,0 0,22 -22,0 z M 528,88 l 22,0 0,22 -22,0 z M 550,88 l 22,0 0,22 -22,0 z M 616,88 l 22,0 0,22 -22,0 z M 638,88 l 22,0 0,22 -22,0 z M 660,88 l 22,0 0,22 -22,0 z M 704,88 l 22,0 0,22 -22,0 z M 726,88 l 22,0 0,22 -22,0 z M 748,88 l 22,0 0,22 -22,0 z M 770,88 l 22,0 0,22 -22,0 z M 792,88 l 22,0 0,22 -22,0 z M 836,88 l 22,0 0,22 -22,0 z M 880,88 l 22,0 0,22 -22,0 z M 902,88 l 22,0 0,22 -22,0 z M 924,88 l 22,0 0,22 -22,0 z M 968,88 l 22,0 0,22 -22,0 z M 0,110 l 22,0 0,22 -22,0 z M 132,110 l 22,0 0,22 -22,0 z M 176,110 l 22,0 0,22 -22,0 z M 308,110 l 22,0 0,22 -22,0 z M 330,110 l 22,0 0,22 -22,0 z M 352,110 l 22,0 0,22 -22,0 z M 396,110 l 22,0 0,22 -22,0 z M 440,110 l 22,0 0,22 -22,0 z M 528,110 l 22,0 0,22 -22,0 z M 572,110 l 22,0 0,22 -22,0 z M 594,110 l 22,0 0,22 -22,0 z M 616,110 l 22,0 0,22 -22,0 z M 638,110 l 22,0 0,22 -22,0 z M 726,110 l 22,0 0,22 -22,0 z M 836,110 l 22,0 0,22 -22,0 z M 968,110 l 22,0 0,22 -22,0 z M 0,132 l 22,0 0,22 -22,0 z M 22,132 l 22,0 0,22 -22,0 z M 44,132 l 22,0 0,22 -22,0 z M 66,132 l 22,0 0,22 -22,0 z M 88,132 l 22,0 0,22 -22,0 z M 110,132 l 22,0 0,22 -22,0 z M 132,132 l 22,0 0,22 -22,0 z M 176,132 l 22,0 0,22 -22,0 z M 220,132 l 22,0 0,22 -22,0 z M 264,132 l 22,0 0,22 -22,0 z M 308,132 l 22,0 0,22 -22,0 z M 352,132 l 22,0 0,22 -22,0 z M 396,132 l 22,0 0,22 -22,0 z M 440,132 l 22,0 0,22 -22,0 z M 484,132 l 22,0 0,22 -22,0 z M 528,132 l 22,0 0,22 -22,0 z M 572,132 l 22,0 0,22 -22,0 z M 616,132 l 22,0 0,22 -22,0 z M 660,132 l 22,0 0,22 -22,0 z M 704,132 l 22,0 0,22 -22,0 z M 748,132 l 22,0 0,22 -22,0 z M 792,132 l 22,0 0,22 -22,0 z M 836,132 l 22,0 0,22 -22,0 z M 858,132 l 22,0 0,22 -22,0 z M 880,132 l 22,0 0,22 -22,0 z M 902,132 l 22,0 0,22 -22,0 z M 924,132 l 22,0 0,22 -22,0 z M 946,132 l 22,0 0,22 -22,0 z M 968,132 l 22,0 0,22 -22,0 z M 176,154 l 22,0 0,22 -22,0 z M 264,154 l 22,0 0,22 -22,0 z M 308,154 l 22,0 0,22 -22,0 z M 418,154 l 22,0 0,22 -22,0 z M 440,154 l 22,0 0,22 -22,0 z M 528,154 l 22,0 0,22 -22,0 z M 572,154 l 22,0 0,22 -22,0 z M 638,154 l 22,0 0,22 -22,0 z M 660,154 l 22,0 0,22 -22,0 z M 704,154 l 22,0 0,22 -22,0 z M 748,154 l 22,0 0,22 -22,0 z M 770,154 l 22,0 0,22 -22,0 z M 792,154 l 22,0 0,22 -22,0 z M 44,176 l 22,0 0,22 -22,0 z M 66,176 l 22,0 0,22 -22,0 z M 88,176 l 22,0 0,22 -22,0 z M 132,176 l 22,0 0,22 -22,0 z M 176,176 l 22,0 0,22 -22,0 z M 198,176 l 22,0 0,22 -22,0 z M 220,176 l 22,0 0,22 -22,0 z M 264,176 l 22,0 0,22 -22,0 z M 308,176 l 22,0 0,22 -22,0 z M 440,176 l 22,0 0,22 -22,0 z M 462,176 l 22,0 0,22 -22,0 z M 484,176 l 22,0 0,22 -22,0 z M 506,176 l 22,0 0,22 -22,0 z M 528,176 l 22,0 0,22 -22,0 z M 550,176 l 22,0 0,22 -22,0 z M 594,176 l 22,0 0,22 -22,0 z M 638,176 l 22,0 0,22 -22,0 z M 682,176 l 22,0 0,22 -22,0 z M 748,176 l 22,0 0,22 -22,0 z M 770,176 l 22,0 0,22 -22,0 z M 814,176 l 22,0 0,22 -22,0 z M 836,176 l 22,0 0,22 -22,0 z M 858,176 l 22,0 0,22 -22,0 z M 924,176 l 22,0 0,22 -22,0 z M 946,176 l 22,0 0,22 -22,0 z M 968,176 l 22,0 0,22 -22,0 z M 22,198 l 22,0 0,22 -22,0 z M 88,198 l 22,0 0,22 -22,0 z M 110,198 l 22,0 0,22 -22,0 z M 176,198 l 22,0 0,22 -22,0 z M 220,198 l 22,0 0,22 -22,0 z M 242,198 l 22,0 0,22 -22,0 z M 264,198 l 22,0 0,22 -22,0 z M 286,198 l 22,0 0,22 -22,0 z M 330,198 l 22,0 0,22 -22,0 z M 374,198 l 22,0 0,22 -22,0 z M 396,198 l 22,0 0,22 -22,0 z M 418,198 l 22,0 0,22 -22,0 z M 528,198 l 22,0 0,22 -22,0 z M 550,198 l 22,0 0,22 -22,0 z M 572,198 l 22,0 0,22 -22,0 z M 616,198 l 22,0 0,22 -22,0 z M 704,198 l 22,0 0,22 -22,0 z M 726,198 l 22,0 0,22 -22,0 z M 770,198 l 22,0 0,22 -22,0 z M 814,198 l 22,0 0,22 -22,0 z M 836,198 l 22,0 0,22 -22,0 z M 858,198 l 22,0 0,22 -22,0 z M 880,198 l 22,0 0,22 -22,0 z M 902,198 l 22,0 0,22 -22,0 z M 924,198 l 22,0 0,22 -22,0 z M 968,198 l 22,0 0,22 -22,0 z M 22,220 l 22,0 0,22 -22,0 z M 44,220 l 22,0 0,22 -22,0 z M 66,220 l 22,0 0,22 -22,0 z M 88,220 l 22,0 0,22 -22,0 z M 132,220 l 22,0 0,22 -22,0 z M 198,220 l 22,0 0,22 -22,0 z M 220,220 l 22,0 0,22 -22,0 z M 242,220 l 22,0 0,22 -22,0 z M 286,220 l 22,0 0,22 -22,0 z M 352,220 l 22,0 0,22 -22,0 z M 374,220 l 22,0 0,22 -22,0 z M 396,220 l 22,0 0,22 -22,0 z M 418,220 l 22,0 0,22 -22,0 z M 462,220 l 22,0 0,22 -22,0 z M 484,220 l 22,0 0,22 -22,0 z M 506,220 l 22,0 0,22 -22,0 z M 528,220 l 22,0 0,22 -22,0 z M 572,220 l 22,0 0,22 -22,0 z M 594,220 l 22,0 0,22 -22,0 z M 616,220 l 22,0 0,22 -22,0 z M 638,220 l 22,0 0,22 -22,0 z M 660,220 l 22,0 0,22 -22,0 z M 682,220 l 22,0 0,22 -22,0 z M 726,220 l 22,0 0,22 -22,0 z M 748,220 l 22,0 0,22 -22,0 z M 968,220 l 22,0 0,22 -22,0 z M 0,242 l 22,0 0,22 -22,0 z M 110,242 l 22,0 0,22 -22,0 z M 176,242 l 22,0 0,22 -22,0 z M 198,242 l 22,0 0,22 -22,0 z M 242,242 l 22,0 0,22 -22,0 z M 308,242 l 22,0 0,22 -22,0 z M 352,242 l 22,0 0,22 -22,0 z M 462,242 l 22,0 0,22 -22,0 z M 484,242 l 22,0 0,22 -22,0 z M 506,242 l 22,0 0,22 -22,0 z M 528,242 l 22,0 0,22 -22,0 z M 594,242 l 22,0 0,22 -22,0 z M 638,242 l 22,0 0,22 -22,0 z M 660,242 l 22,0 0,22 -22,0 z M 726,242 l 22,0 0,22 -22,0 z M 770,242 l 22,0 0,22 -22,0 z M 792,242 l 22,0 0,22 -22,0 z M 858,242 l 22,0 0,22 -22,0 z M 880,242 l 22,0 0,22 -22,0 z M 924,242 l 22,0 0,22 -22,0 z M 968,242 l 22,0 0,22 -22,0 z M 22,264 l 22,0 0,22 -22,0 z M 44,264 l 22,0 0,22 -22,0 z M 66,264 l 22,0 0,22 -22,0 z M 88,264 l 22,0 0,22 -22,0 z M 132,264 l 22,0 0,22 -22,0 z M 154,264 l 22,0 0,22 -22,0 z M 176,264 l 22,0 0,22 -22,0 z M 198,264 l 22,0 0,22 -22,0 z M 352,264 l 22,0 0,22 -22,0 z M 374,264 l 22,0 0,22 -22,0 z M 396,264 l 22,0 0,22 -22,0 z M 418,264 l 22,0 0,22 -22,0 z M 440,264 l 22,0 0,22 -22,0 z M 484,264 l 22,0 0,22 -22,0 z M 550,264 l 22,0 0,22 -22,0 z M 572,264 l 22,0 0,22 -22,0 z M 748,264 l 22,0 0,22 -22,0 z M 880,264 l 22,0 0,22 -22,0 z M 902,264 l 22,0 0,22 -22,0 z M 946,264 l 22,0 0,22 -22,0 z M 0,286 l 22,0 0,22 -22,0 z M 44,286 l 22,0 0,22 -22,0 z M 66,286 l 22,0 0,22 -22,0 z M 88,286 l 22,0 0,22 -22,0 z M 110,286 l 22,0 0,22 -22,0 z M 198,286 l 22,0 0,22 -22,0 z M 286,286 l 22,0 0,22 -22,0 z M 308,286 l 22,0 0,22 -22,0 z M 374,286 l 22,0 0,22 -22,0 z M 550,286 l 22,0 0,22 -22,0 z M 572,286 l 22,0 0,22 -22,0 z M 594,286 l 22,0 0,22 -22,0 z M 638,286 l 22,0 0,22 -22,0 z M 660,286 l 22,0 0,22 -22,0 z M 682,286 l 22,0 0,22 -22,0 z M 704,286 l 22,0 0,22 -22,0 z M 726,286 l 22,0 0,22 -22,0 z M 770,286 l 22,0 0,22 -22,0 z M 814,286 l 22,0 0,22 -22,0 z M 858,286 l 22,0 0,22 -22,0 z M 880,286 l 22,0 0,22 -22,0 z M 946,286 l 22,0 0,22 -22,0 z M 968,286 l 22,0 0,22 -22,0 z M 0,308 l 22,0 0,22 -22,0 z M 22,308 l 22,0 0,22 -22,0 z M 44,308 l 22,0 0,22 -22,0 z M 66,308 l 22,0 0,22 -22,0 z M 88,308 l 22,0 0,22 -22,0 z M 132,308 l 22,0 0,22 -22,0 z M 176,308 l 22,0 0,22 -22,0 z M 242,308 l 22,0 0,22 -22,0 z M 264,308 l 22,0 0,22 -22,0 z M 308,308 l 22,0 0,22 -22,0 z M 330,308 l 22,0 0,22 -22,0 z M 396,308 l 22,0 0,22 -22,0 z M 528,308 l 22,0 0,22 -22,0 z M 550,308 l 22,0 0,22 -22,0 z M 572,308 l 22,0 0,22 -22,0 z M 594,308 l 22,0 0,22 -22,0 z M 616,308 l 22,0 0,22 -22,0 z M 682,308 l 22,0 0,22 -22,0 z M 726,308 l 22,0 0,22 -22,0 z M 748,308 l 22,0 0,22 -22,0 z M 814,308 l 22,0 0,22 -22,0 z M 836,308 l 22,0 0,22 -22,0 z M 924,308 l 22,0 0,22 -22,0 z M 946,308 l 22,0 0,22 -22,0 z M 0,330 l 22,0 0,22 -22,0 z M 66,330 l 22,0 0,22 -22,0 z M 176,330 l 22,0 0,22 -22,0 z M 220,330 l 22,0 0,22 -22,0 z M 242,330 l 22,0 0,22 -22,0 z M 308,330 l 22,0 0,22 -22,0 z M 396,330 l 22,0 0,22 -22,0 z M 418,330 l 22,0 0,22 -22,0 z M 440,330 l 22,0 0,22 -22,0 z M 462,330 l 22,0 0,22 -22,0 z M 572,330 l 22,0 0,22 -22,0 z M 616,330 l 22,0 0,22 -22,0 z M 660,330 l 22,0 0,22 -22,0 z M 704,330 l 22,0 0,22 -22,0 z M 792,330 l 22,0 0,22 -22,0 z M 858,330 l 22,0 0,22 -22,0 z M 902,330 l 22,0 0,22 -22,0 z M 924,330 l 22,0 0,22 -22,0 z M 968,330 l 22,0 0,22 -22,0 z M 0,352 l 22,0 0,22 -22,0 z M 66,352 l 22,0 0,22 -22,0 z M 132,352 l 22,0 0,22 -22,0 z M 154,352 l 22,0 0,22 -22,0 z M 176,352 l 22,0 0,22 -22,0 z M 198,352 l 22,0 0,22 -22,0 z M 264,352 l 22,0 0,22 -22,0 z M 286,352 l 22,0 0,22 -22,0 z M 330,352 l 22,0 0,22 -22,0 z M 352,352 l 22,0 0,22 -22,0 z M 440,352 l 22,0 0,22 -22,0 z M 528,352 l 22,0 0,22 -22,0 z M 594,352 l 22,0 0,22 -22,0 z M 616,352 l 22,0 0,22 -22,0 z M 660,352 l 22,0 0,22 -22,0 z M 682,352 l 22,0 0,22 -22,0 z M 704,352 l 22,0 0,22 -22,0 z M 726,352 l 22,0 0,22 -22,0 z M 748,352 l 22,0 0,22 -22,0 z M 792,352 l 22,0 0,22 -22,0 z M 814,352 l 22,0 0,22 -22,0 z M 836,352 l 22,0 0,22 -22,0 z M 858,352 l 22,0 0,22 -22,0 z M 880,352 l 22,0 0,22 -22,0 z M 902,352 l 22,0 0,22 -22,0 z M 946,352 l 22,0 0,22 -22,0 z M 88,374 l 22,0 0,22 -22,0 z M 110,374 l 22,0 0,22 -22,0 z M 176,374 l 22,0 0,22 -22,0 z M 198,374 l 22,0 0,22 -22,0 z M 286,374 l 22,0 0,22 -22,0 z M 308,374 l 22,0 0,22 -22,0 z M 462,374 l 22,0 0,22 -22,0 z M 484,374 l 22,0 0,22 -22,0 z M 528,374 l 22,0 0,22 -22,0 z M 550,374 l 22,0 0,22 -22,0 z M 616,374 l 22,0 0,22 -22,0 z M 660,374 l 22,0 0,22 -22,0 z M 704,374 l 22,0 0,22 -22,0 z M 726,374 l 22,0 0,22 -22,0 z M 748,374 l 22,0 0,22 -22,0 z M 792,374 l 22,0 0,22 -22,0 z M 836,374 l 22,0 0,22 -22,0 z M 858,374 l 22,0 0,22 -22,0 z M 880,374 l 22,0 0,22 -22,0 z M 924,374 l 22,0 0,22 -22,0 z M 968,374 l 22,0 0,22 -22,0 z M 0,396 l 22,0 0,22 -22,0 z M 22,396 l 22,0 0,22 -22,0 z M 44,396 l 22,0 0,22 -22,0 z M 88,396 l 22,0 0,22 -22,0 z M 132,396 l 22,0 0,22 -22,0 z M 154,396 l 22,0 0,22 -22,0 z M 176,396 l 22,0 0,22 -22,0 z M 198,396 l 22,0 0,22 -22,0 z M 220,396 l 22,0 0,22 -22,0 z M 242,396 l 22,0 0,22 -22,0 z M 308,396 l 22,0 0,22 -22,0 z M 352,396 l 22,0 0,22 -22,0 z M 374,396 l 22,0 0,22 -22,0 z M 418,396 l 22,0 0,22 -22,0 z M 462,396 l 22,0 0,22 -22,0 z M 572,396 l 22,0 0,22 -22,0 z M 594,396 l 22,0 0,22 -22,0 z M 660,396 l 22,0 0,22 -22,0 z M 682,396 l 22,0 0,22 -22,0 z M 770,396 l 22,0 0,22 -22,0 z M 902,396 l 22,0 0,22 -22,0 z M 924,396 l 22,0 0,22 -22,0 z M 946,396 l 22,0 0,22 -22,0 z M 0,418 l 22,0 0,22 -22,0 z M 44,418 l 22,0 0,22 -22,0 z M 66,418 l 22,0 0,22 -22,0 z M 88,418 l 22,0 0,22 -22,0 z M 110,418 l 22,0 0,22 -22,0 z M 154,418 l 22,0 0,22 -22,0 z M 220,418 l 22,0 0,22 -22,0 z M 242,418 l 22,0 0,22 -22,0 z M 264,418 l 22,0 0,22 -22,0 z M 286,418 l 22,0 0,22 -22,0 z M 308,418 l 22,0 0,22 -22,0 z M 330,418 l 22,0 0,22 -22,0 z M 352,418 l 22,0 0,22 -22,0 z M 396,418 l 22,0 0,22 -22,0 z M 440,418 l 22,0 0,22 -22,0 z M 462,418 l 22,0 0,22 -22,0 z M 616,418 l 22,0 0,22 -22,0 z M 638,418 l 22,0 0,22 -22,0 z M 704,418 l 22,0 0,22 -22,0 z M 792,418 l 22,0 0,22 -22,0 z M 814,418 l 22,0 0,22 -22,0 z M 858,418 l 22,0 0,22 -22,0 z M 880,418 l 22,0 0,22 -22,0 z M 902,418 l 22,0 0,22 -22,0 z M 924,418 l 22,0 0,22 -22,0 z M 22,440 l 22,0 0,22 -22,0 z M 44,440 l 22,0 0,22 -22,0 z M 88,440 l 22,0 0,22 -22,0 z M 110,440 l 22,0 0,22 -22,0 z M 132,440 l 22,0 0,22 -22,0 z M 154,440 l 22,0 0,22 -22,0 z M 176,440 l 22,0 0,22 -22,0 z M 242,440 l 22,0 0,22 -22,0 z M 286,440 l 22,0 0,22 -22,0 z M 330,440 l 22,0 0,22 -22,0 z M 352,440 l 22,0 0,22 -22,0 z M 374,440 l 22,0 0,22 -22,0 z M 396,440 l 22,0 0,22 -22,0 z M 418,440 l 22,0 0,22 -22,0 z M 440,440 l 22,0 0,22 -22,0 z M 462,440 l 22,0 0,22 -22,0 z M 484,440 l 22,0 0,22 -22,0 z M 506,440 l 22,0 0,22 -22,0 z M 528,440 l 22,0 0,22 -22,0 z M 572,440 l 22,0 0,22 -22,0 z M 594,440 l 22,0 0,22 -22,0 z M 616,440 l 22,0 0,22 -22,0 z M 682,440 l 22,0 0,22 -22,0 z M 726,440 l 22,0 0,22 -22,0 z M 748,440 l 22,0 0,22 -22,0 z M 792,440 l 22,0 0,22 -22,0 z M 814,440 l 22,0 0,22 -22,0 z M 836,440 l 22,0 0,22 -22,0 z M 858,440 l 22,0 0,22 -22,0 z M 880,440 l 22,0 0,22 -22,0 z M 902,440 l 22,0 0,22 -22,0 z M 946,440 l 22,0 0,22 -22,0 z M 44,462 l 22,0 0,22 -22,0 z M 88,462 l 22,0 0,22 -22,0 z M 176,462 l 22,0 0,22 -22,0 z M 198,462 l 22,0 0,22 -22,0 z M 286,462 l 22,0 0,22 -22,0 z M 308,462 l 22,0 0,22 -22,0 z M 330,462 l 22,0 0,22 -22,0 z M 352,462 l 22,0 0,22 -22,0 z M 418,462 l 22,0 0,22 -22,0 z M 440,462 l 22,0 0,22 -22,0 z M 528,462 l 22,0 0,22 -22,0 z M 550,462 l 22,0 0,22 -22,0 z M 572,462 l 22,0 0,22 -22,0 z M 616,462 l 22,0 0,22 -22,0 z M 638,462 l 22,0 0,22 -22,0 z M 682,462 l 22,0 0,22 -22,0 z M 748,462 l 22,0 0,22 -22,0 z M 770,462 l 22,0 0,22 -22,0 z M 792,462 l 22,0 0,22 -22,0 z M 880,462 l 22,0 0,22 -22,0 z M 902,462 l 22,0 0,22 -22,0 z M 924,462 l 22,0 0,22 -22,0 z M 968,462 l 22,0 0,22 -22,0 z M 0,484 l 22,0 0,22 -22,0 z M 66,484 l 22,0 0,22 -22,0 z M 88,484 l 22,0 0,22 -22,0 z M 132,484 l 22,0 0,22 -22,0 z M 176,484 l 22,0 0,22 -22,0 z M 198,484 l 22,0 0,22 -22,0 z M 220,484 l 22,0 0,22 -22,0 z M 242,484 l 22,0 0,22 -22,0 z M 286,484 l 22,0 0,22 -22,0 z M 330,484 l 22,0 0,22 -22,0 z M 374,484 l 22,0 0,22 -22,0 z M 396,484 l 22,0 0,22 -22,0 z M 440,484 l 22,0 0,22 -22,0 z M 484,484 l 22,0 0,22 -22,0 z M 528,484 l 22,0 0,22 -22,0 z M 550,484 l 22,0 0,22 -22,0 z M 660,484 l 22,0 0,22 -22,0 z M 726,484 l 22,0 0,22 -22,0 z M 748,484 l 22,0 0,22 -22,0 z M 792,484 l 22,0 0,22 -22,0 z M 836,484 l 22,0 0,22 -22,0 z M 880,484 l 22,0 0,22 -22,0 z M 946,484 l 22,0 0,22 -22,0 z M 0,506 l 22,0 0,22 -22,0 z M 44,506 l 22,0 0,22 -22,0 z M 66,506 l 22,0 0,22 -22,0 z M 88,506 l 22,0 0,22 -22,0 z M 176,506 l 22,0 0,22 -22,0 z M 198,506 l 22,0 0,22 -22,0 z M 220,506 l 22,0 0,22 -22,0 z M 242,506 l 22,0 0,22 -22,0 z M 286,506 l 22,0 0,22 -22,0 z M 308,506 l 22,0 0,22 -22,0 z M 330,506 l 22,0 0,22 -22,0 z M 352,506 l 22,0 0,22 -22,0 z M 374,506 l 22,0 0,22 -22,0 z M 418,506 l 22,0 0,22 -22,0 z M 440,506 l 22,0 0,22 -22,0 z M 528,506 l 22,0 0,22 -22,0 z M 550,506 l 22,0 0,22 -22,0 z M 616,506 l 22,0 0,22 -22,0 z M 682,506 l 22,0 0,22 -22,0 z M 792,506 l 22,0 0,22 -22,0 z M 880,506 l 22,0 0,22 -22,0 z M 946,506 l 22,0 0,22 -22,0 z M 968,506 l 22,0 0,22 -22,0 z M 0,528 l 22,0 0,22 -22,0 z M 88,528 l 22,0 0,22 -22,0 z M 110,528 l 22,0 0,22 -22,0 z M 132,528 l 22,0 0,22 -22,0 z M 154,528 l 22,0 0,22 -22,0 z M 176,528 l 22,0 0,22 -22,0 z M 198,528 l 22,0 0,22 -22,0 z M 220,528 l 22,0 0,22 -22,0 z M 264,528 l 22,0 0,22 -22,0 z M 286,528 l 22,0 0,22 -22,0 z M 308,528 l 22,0 0,22 -22,0 z M 396,528 l 22,0 0,22 -22,0 z M 418,528 l 22,0 0,22 -22,0 z M 440,528 l 22,0 0,22 -22,0 z M 462,528 l 22,0 0,22 -22,0 z M 484,528 l 22,0 0,22 -22,0 z M 506,528 l 22,0 0,22 -22,0 z M 528,528 l 22,0 0,22 -22,0 z M 550,528 l 22,0 0,22 -22,0 z M 616,528 l 22,0 0,22 -22,0 z M 660,528 l 22,0 0,22 -22,0 z M 682,528 l 22,0 0,22 -22,0 z M 726,528 l 22,0 0,22 -22,0 z M 748,528 l 22,0 0,22 -22,0 z M 792,528 l 22,0 0,22 -22,0 z M 814,528 l 22,0 0,22 -22,0 z M 836,528 l 22,0 0,22 -22,0 z M 858,528 l 22,0 0,22 -22,0 z M 880,528 l 22,0 0,22 -22,0 z M 902,528 l 22,0 0,22 -22,0 z M 924,528 l 22,0 0,22 -22,0 z M 946,528 l 22,0 0,22 -22,0 z M 968,528 l 22,0 0,22 -22,0 z M 0,550 l 22,0 0,22 -22,0 z M 22,550 l 22,0 0,22 -22,0 z M 66,550 l 22,0 0,22 -22,0 z M 110,550 l 22,0 0,22 -22,0 z M 154,550 l 22,0 0,22 -22,0 z M 198,550 l 22,0 0,22 -22,0 z M 242,550 l 22,0 0,22 -22,0 z M 264,550 l 22,0 0,22 -22,0 z M 330,550 l 22,0 0,22 -22,0 z M 352,550 l 22,0 0,22 -22,0 z M 374,550 l 22,0 0,22 -22,0 z M 418,550 l 22,0 0,22 -22,0 z M 440,550 l 22,0 0,22 -22,0 z M 506,550 l 22,0 0,22 -22,0 z M 638,550 l 22,0 0,22 -22,0 z M 704,550 l 22,0 0,22 -22,0 z M 748,550 l 22,0 0,22 -22,0 z M 770,550 l 22,0 0,22 -22,0 z M 792,550 l 22,0 0,22 -22,0 z M 814,550 l 22,0 0,22 -22,0 z M 836,550 l 22,0 0,22 -22,0 z M 880,550 l 22,0 0,22 -22,0 z M 902,550 l 22,0 0,22 -22,0 z M 924,550 l 22,0 0,22 -22,0 z M 946,550 l 22,0 0,22 -22,0 z M 0,572 l 22,0 0,22 -22,0 z M 22,572 l 22,0 0,22 -22,0 z M 66,572 l 22,0 0,22 -22,0 z M 132,572 l 22,0 0,22 -22,0 z M 176,572 l 22,0 0,22 -22,0 z M 198,572 l 22,0 0,22 -22,0 z M 220,572 l 22,0 0,22 -22,0 z M 286,572 l 22,0 0,22 -22,0 z M 308,572 l 22,0 0,22 -22,0 z M 374,572 l 22,0 0,22 -22,0 z M 396,572 l 22,0 0,22 -22,0 z M 418,572 l 22,0 0,22 -22,0 z M 462,572 l 22,0 0,22 -22,0 z M 528,572 l 22,0 0,22 -22,0 z M 572,572 l 22,0 0,22 -22,0 z M 616,572 l 22,0 0,22 -22,0 z M 638,572 l 22,0 0,22 -22,0 z M 660,572 l 22,0 0,22 -22,0 z M 682,572 l 22,0 0,22 -22,0 z M 748,572 l 22,0 0,22 -22,0 z M 770,572 l 22,0 0,22 -22,0 z M 792,572 l 22,0 0,22 -22,0 z M 814,572 l 22,0 0,22 -22,0 z M 858,572 l 22,0 0,22 -22,0 z M 880,572 l 22,0 0,22 -22,0 z M 968,572 l 22,0 0,22 -22,0 z M 22,594 l 22,0 0,22 -22,0 z M 110,594 l 22,0 0,22 -22,0 z M 154,594 l 22,0 0,22 -22,0 z M 176,594 l 22,0 0,22 -22,0 z M 198,594 l 22,0 0,22 -22,0 z M 220,594 l 22,0 0,22 -22,0 z M 242,594 l 22,0 0,22 -22,0 z M 308,594 l 22,0 0,22 -22,0 z M 352,594 l 22,0 0,22 -22,0 z M 374,594 l 22,0 0,22 -22,0 z M 396,594 l 22,0 0,22 -22,0 z M 462,594 l 22,0 0,22 -22,0 z M 484,594 l 22,0 0,22 -22,0 z M 528,594 l 22,0 0,22 -22,0 z M 550,594 l 22,0 0,22 -22,0 z M 594,594 l 22,0 0,22 -22,0 z M 660,594 l 22,0 0,22 -22,0 z M 682,594 l 22,0 0,22 -22,0 z M 704,594 l 22,0 0,22 -22,0 z M 748,594 l 22,0 0,22 -22,0 z M 792,594 l 22,0 0,22 -22,0 z M 814,594 l 22,0 0,22 -22,0 z M 858,594 l 22,0 0,22 -22,0 z M 902,594 l 22,0 0,22 -22,0 z M 924,594 l 22,0 0,22 -22,0 z M 968,594 l 22,0 0,22 -22,0 z M 0,616 l 22,0 0,22 -22,0 z M 22,616 l 22,0 0,22 -22,0 z M 44,616 l 22,0 0,22 -22,0 z M 110,616 l 22,0 0,22 -22,0 z M 132,616 l 22,0 0,22 -22,0 z M 154,616 l 22,0 0,22 -22,0 z M 198,616 l 22,0 0,22 -22,0 z M 242,616 l 22,0 0,22 -22,0 z M 264,616 l 22,0 0,22 -22,0 z M 286,616 l 22,0 0,22 -22,0 z M 374,616 l 22,0 0,22 -22,0 z M 396,616 l 22,0 0,22 -22,0 z M 418,616 l 22,0 0,22 -22,0 z M 462,616 l 22,0 0,22 -22,0 z M 528,616 l 22,0 0,22 -22,0 z M 594,616 l 22,0 0,22 -22,0 z M 616,616 l 22,0 0,22 -22,0 z M 660,616 l 22,0 0,22 -22,0 z M 682,616 l 22,0 0,22 -22,0 z M 704,616 l 22,0 0,22 -22,0 z M 748,616 l 22,0 0,22 -22,0 z M 814,616 l 22,0 0,22 -22,0 z M 880,616 l 22,0 0,22 -22,0 z M 902,616 l 22,0 0,22 -22,0 z M 924,616 l 22,0 0,22 -22,0 z M 946,616 l 22,0 0,22 -22,0 z M 22,638 l 22,0 0,22 -22,0 z M 66,638 l 22,0 0,22 -22,0 z M 110,638 l 22,0 0,22 -22,0 z M 198,638 l 22,0 0,22 -22,0 z M 220,638 l 22,0 0,22 -22,0 z M 286,638 l 22,0 0,22 -22,0 z M 374,638 l 22,0 0,22 -22,0 z M 418,638 l 22,0 0,22 -22,0 z M 484,638 l 22,0 0,22 -22,0 z M 506,638 l 22,0 0,22 -22,0 z M 528,638 l 22,0 0,22 -22,0 z M 572,638 l 22,0 0,22 -22,0 z M 594,638 l 22,0 0,22 -22,0 z M 616,638 l 22,0 0,22 -22,0 z M 660,638 l 22,0 0,22 -22,0 z M 704,638 l 22,0 0,22 -22,0 z M 770,638 l 22,0 0,22 -22,0 z M 836,638 l 22,0 0,22 -22,0 z M 902,638 l 22,0 0,22 -22,0 z M 924,638 l 22,0 0,22 -22,0 z M 946,638 l 22,0 0,22 -22,0 z M 968,638 l 22,0 0,22 -22,0 z M 22,660 l 22,0 0,22 -22,0 z M 44,660 l 22,0 0,22 -22,0 z M 88,660 l 22,0 0,22 -22,0 z M 110,660 l 22,0 0,22 -22,0 z M 132,660 l 22,0 0,22 -22,0 z M 176,660 l 22,0 0,22 -22,0 z M 220,660 l 22,0 0,22 -22,0 z M 242,660 l 22,0 0,22 -22,0 z M 264,660 l 22,0 0,22 -22,0 z M 352,660 l 22,0 0,22 -22,0 z M 374,660 l 22,0 0,22 -22,0 z M 396,660 l 22,0 0,22 -22,0 z M 462,660 l 22,0 0,22 -22,0 z M 506,660 l 22,0 0,22 -22,0 z M 528,660 l 22,0 0,22 -22,0 z M 572,660 l 22,0 0,22 -22,0 z M 616,660 l 22,0 0,22 -22,0 z M 660,660 l 22,0 0,22 -22,0 z M 682,660 l 22,0 0,22 -22,0 z M 726,660 l 22,0 0,22 -22,0 z M 748,660 l 22,0 0,22 -22,0 z M 814,660 l 22,0 0,22 -22,0 z M 858,660 l 22,0 0,22 -22,0 z M 946,660 l 22,0 0,22 -22,0 z M 968,660 l 22,0 0,22 -22,0 z M 44,682 l 22,0 0,22 -22,0 z M 66,682 l 22,0 0,22 -22,0 z M 110,682 l 22,0 0,22 -22,0 z M 154,682 l 22,0 0,22 -22,0 z M 176,682 l 22,0 0,22 -22,0 z M 242,682 l 22,0 0,22 -22,0 z M 264,682 l 22,0 0,22 -22,0 z M 352,682 l 22,0 0,22 -22,0 z M 440,682 l 22,0 0,22 -22,0 z M 462,682 l 22,0 0,22 -22,0 z M 484,682 l 22,0 0,22 -22,0 z M 506,682 l 22,0 0,22 -22,0 z M 550,682 l 22,0 0,22 -22,0 z M 572,682 l 22,0 0,22 -22,0 z M 638,682 l 22,0 0,22 -22,0 z M 682,682 l 22,0 0,22 -22,0 z M 704,682 l 22,0 0,22 -22,0 z M 726,682 l 22,0 0,22 -22,0 z M 770,682 l 22,0 0,22 -22,0 z M 814,682 l 22,0 0,22 -22,0 z M 836,682 l 22,0 0,22 -22,0 z M 968,682 l 22,0 0,22 -22,0 z M 0,704 l 22,0 0,22 -22,0 z M 22,704 l 22,0 0,22 -22,0 z M 44,704 l 22,0 0,22 -22,0 z M 132,704 l 22,0 0,22 -22,0 z M 154,704 l 22,0 0,22 -22,0 z M 198,704 l 22,0 0,22 -22,0 z M 220,704 l 22,0 0,22 -22,0 z M 264,704 l 22,0 0,22 -22,0 z M 308,704 l 22,0 0,22 -22,0 z M 330,704 l 22,0 0,22 -22,0 z M 352,704 l 22,0 0,22 -22,0 z M 396,704 l 22,0 0,22 -22,0 z M 440,704 l 22,0 0,22 -22,0 z M 462,704 l 22,0 0,22 -22,0 z M 528,704 l 22,0 0,22 -22,0 z M 550,704 l 22,0 0,22 -22,0 z M 594,704 l 22,0 0,22 -22,0 z M 616,704 l 22,0 0,22 -22,0 z M 660,704 l 22,0 0,22 -22,0 z M 682,704 l 22,0 0,22 -22,0 z M 704,704 l 22,0 0,22 -22,0 z M 726,704 l 22,0 0,22 -22,0 z M 748,704 l 22,0 0,22 -22,0 z M 902,704 l 22,0 0,22 -22,0 z M 924,704 l 22,0 0,22 -22,0 z M 946,704 l 22,0 0,22 -22,0 z M 44,726 l 22,0 0,22 -22,0 z M 88,726 l 22,0 0,22 -22,0 z M 110,726 l 22,0 0,22 -22,0 z M 154,726 l 22,0 0,22 -22,0 z M 176,726 l 22,0 0,22 -22,0 z M 242,726 l 22,0 0,22 -22,0 z M 286,726 l 22,0 0,22 -22,0 z M 352,726 l 22,0 0,22 -22,0 z M 374,726 l 22,0 0,22 -22,0 z M 396,726 l 22,0 0,22 -22,0 z M 462,726 l 22,0 0,22 -22,0 z M 484,726 l 22,0 0,22 -22,0 z M 550,726 l 22,0 0,22 -22,0 z M 572,726 l 22,0 0,22 -22,0 z M 616,726 l 22,0 0,22 -22,0 z M 638,726 l 22,0 0,22 -22,0 z M 660,726 l 22,0 0,22 -22,0 z M 704,726 l 22,0 0,22 -22,0 z M 748,726 l 22,0 0,22 -22,0 z M 770,726 l 22,0 0,22 -22,0 z M 836,726 l 22,0 0,22 -22,0 z M 858,726 l 22,0 0,22 -22,0 z M 902,726 l 22,0 0,22 -22,0 z M 924,726 l 22,0 0,22 -22,0 z M 968,726 l 22,0 0,22 -22,0 z M 88,748 l 22,0 0,22 -22,0 z M 132,748 l 22,0 0,22 -22,0 z M 154,748 l 22,0 0,22 -22,0 z M 176,748 l 22,0 0,22 -22,0 z M 198,748 l 22,0 0,22 -22,0 z M 264,748 l 22,0 0,22 -22,0 z M 286,748 l 22,0 0,22 -22,0 z M 308,748 l 22,0 0,22 -22,0 z M 352,748 l 22,0 0,22 -22,0 z M 374,748 l 22,0 0,22 -22,0 z M 440,748 l 22,0 0,22 -22,0 z M 484,748 l 22,0 0,22 -22,0 z M 506,748 l 22,0 0,22 -22,0 z M 550,748 l 22,0 0,22 -22,0 z M 594,748 l 22,0 0,22 -22,0 z M 660,748 l 22,0 0,22 -22,0 z M 792,748 l 22,0 0,22 -22,0 z M 814,748 l 22,0 0,22 -22,0 z M 836,748 l 22,0 0,22 -22,0 z M 858,748 l 22,0 0,22 -22,0 z M 880,748 l 22,0 0,22 -22,0 z M 924,748 l 22,0 0,22 -22,0 z M 946,748 l 22,0 0,22 -22,0 z M 968,748 l 22,0 0,22 -22,0 z M 22,770 l 22,0 0,22 -22,0 z M 44,770 l 22,0 0,22 -22,0 z M 66,770 l 22,0 0,22 -22,0 z M 88,770 l 22,0 0,22 -22,0 z M 176,770 l 22,0 0,22 -22,0 z M 198,770 l 22,0 0,22 -22,0 z M 220,770 l 22,0 0,22 -22,0 z M 264,770 l 22,0 0,22 -22,0 z M 286,770 l 22,0 0,22 -22,0 z M 352,770 l 22,0 0,22 -22,0 z M 374,770 l 22,0 0,22 -22,0 z M 396,770 l 22,0 0,22 -22,0 z M 440,770 l 22,0 0,22 -22,0 z M 506,770 l 22,0 0,22 -22,0 z M 572,770 l 22,0 0,22 -22,0 z M 594,770 l 22,0 0,22 -22,0 z M 616,770 l 22,0 0,22 -22,0 z M 660,770 l 22,0 0,22 -22,0 z M 682,770 l 22,0 0,22 -22,0 z M 770,770 l 22,0 0,22 -22,0 z M 792,770 l 22,0 0,22 -22,0 z M 814,770 l 22,0 0,22 -22,0 z M 902,770 l 22,0 0,22 -22,0 z M 924,770 l 22,0 0,22 -22,0 z M 968,770 l 22,0 0,22 -22,0 z M 0,792 l 22,0 0,22 -22,0 z M 66,792 l 22,0 0,22 -22,0 z M 88,792 l 22,0 0,22 -22,0 z M 132,792 l 22,0 0,22 -22,0 z M 154,792 l 22,0 0,22 -22,0 z M 286,792 l 22,0 0,22 -22,0 z M 330,792 l 22,0 0,22 -22,0 z M 352,792 l 22,0 0,22 -22,0 z M 374,792 l 22,0 0,22 -22,0 z M 396,792 l 22,0 0,22 -22,0 z M 418,792 l 22,0 0,22 -22,0 z M 440,792 l 22,0 0,22 -22,0 z M 462,792 l 22,0 0,22 -22,0 z M 484,792 l 22,0 0,22 -22,0 z M 506,792 l 22,0 0,22 -22,0 z M 528,792 l 22,0 0,22 -22,0 z M 550,792 l 22,0 0,22 -22,0 z M 572,792 l 22,0 0,22 -22,0 z M 638,792 l 22,0 0,22 -22,0 z M 660,792 l 22,0 0,22 -22,0 z M 682,792 l 22,0 0,22 -22,0 z M 726,792 l 22,0 0,22 -22,0 z M 748,792 l 22,0 0,22 -22,0 z M 792,792 l 22,0 0,22 -22,0 z M 814,792 l 22,0 0,22 -22,0 z M 836,792 l 22,0 0,22 -22,0 z M 858,792 l 22,0 0,22 -22,0 z M 880,792 l 22,0 0,22 -22,0 z M 902,792 l 22,0 0,22 -22,0 z M 176,814 l 22,0 0,22 -22,0 z M 198,814 l 22,0 0,22 -22,0 z M 220,814 l 22,0 0,22 -22,0 z M 286,814 l 22,0 0,22 -22,0 z M 440,814 l 22,0 0,22 -22,0 z M 528,814 l 22,0 0,22 -22,0 z M 550,814 l 22,0 0,22 -22,0 z M 572,814 l 22,0 0,22 -22,0 z M 594,814 l 22,0 0,22 -22,0 z M 660,814 l 22,0 0,22 -22,0 z M 704,814 l 22,0 0,22 -22,0 z M 748,814 l 22,0 0,22 -22,0 z M 792,814 l 22,0 0,22 -22,0 z M 880,814 l 22,0 0,22 -22,0 z M 946,814 l 22,0 0,22 -22,0 z M 968,814 l 22,0 0,22 -22,0 z M 0,836 l 22,0 0,22 -22,0 z M 22,836 l 22,0 0,22 -22,0 z M 44,836 l 22,0 0,22 -22,0 z M 66,836 l 22,0 0,22 -22,0 z M 88,836 l 22,0 0,22 -22,0 z M 110,836 l 22,0 0,22 -22,0 z M 132,836 l 22,0 0,22 -22,0 z M 220,836 l 22,0 0,22 -22,0 z M 308,836 l 22,0 0,22 -22,0 z M 330,836 l 22,0 0,22 -22,0 z M 352,836 l 22,0 0,22 -22,0 z M 418,836 l 22,0 0,22 -22,0 z M 440,836 l 22,0 0,22 -22,0 z M 484,836 l 22,0 0,22 -22,0 z M 528,836 l 22,0 0,22 -22,0 z M 572,836 l 22,0 0,22 -22,0 z M 594,836 l 22,0 0,22 -22,0 z M 616,836 l 22,0 0,22 -22,0 z M 638,836 l 22,0 0,22 -22,0 z M 660,836 l 22,0 0,22 -22,0 z M 682,836 l 22,0 0,22 -22,0 z M 748,836 l 22,0 0,22 -22,0 z M 770,836 l 22,0 0,22 -22,0 z M 792,836 l 22,0 0,22 -22,0 z M 836,836 l 22,0 0,22 -22,0 z M 880,836 l 22,0 0,22 -22,0 z M 946,836 l 22,0 0,22 -22,0 z M 0,858 l 22,0 0,22 -22,0 z M 132,858 l 22,0 0,22 -22,0 z M 198,858 l 22,0 0,22 -22,0 z M 264,858 l 22,0 0,22 -22,0 z M 286,858 l 22,0 0,22 -22,0 z M 330,858 l 22,0 0,22 -22,0 z M 352,858 l 22,0 0,22 -22,0 z M 374,858 l 22,0 0,22 -22,0 z M 396,858 l 22,0 0,22 -22,0 z M 440,858 l 22,0 0,22 -22,0 z M 528,858 l 22,0 0,22 -22,0 z M 594,858 l 22,0 0,22 -22,0 z M 660,858 l 22,0 0,22 -22,0 z M 704,858 l 22,0 0,22 -22,0 z M 726,858 l 22,0 0,22 -22,0 z M 770,858 l 22,0 0,22 -22,0 z M 792,858 l 22,0 0,22 -22,0 z M 880,858 l 22,0 0,22 -22,0 z M 902,858 l 22,0 0,22 -22,0 z M 924,858 l 22,0 0,22 -22,0 z M 946,858 l 22,0 0,22 -22,0 z M 968,858 l 22,0 0,22 -22,0 z M 0,880 l 22,0 0,22 -22,0 z M 44,880 l 22,0 0,22 -22,0 z M 66,880 l 22,0 0,22 -22,0 z M 88,880 l 22,0 0,22 -22,0 z M 132,880 l 22,0 0,22 -22,0 z M 176,880 l 22,0 0,22 -22,0 z M 220,880 l 22,0 0,22 -22,0 z M 286,880 l 22,0 0,22 -22,0 z M 308,880 l 22,0 0,22 -22,0 z M 374,880 l 22,0 0,22 -22,0 z M 396,880 l 22,0 0,22 -22,0 z M 440,880 l 22,0 0,22 -22,0 z M 462,880 l 22,0 0,22 -22,0 z M 484,880 l 22,0 0,22 -22,0 z M 506,880 l 22,0 0,22 -22,0 z M 528,880 l 22,0 0,22 -22,0 z M 638,880 l 22,0 0,22 -22,0 z M 660,880 l 22,0 0,22 -22,0 z M 682,880 l 22,0 0,22 -22,0 z M 726,880 l 22,0 0,22 -22,0 z M 748,880 l 22,0 0,22 -22,0 z M 792,880 l 22,0 0,22 -22,0 z M 814,880 l 22,0 0,22 -22,0 z M 836,880 l 22,0 0,22 -22,0 z M 858,880 l 22,0 0,22 -22,0 z M 880,880 l 22,0 0,22 -22,0 z M 924,880 l 22,0 0,22 -22,0 z M 968,880 l 22,0 0,22 -22,0 z M 0,902 l 22,0 0,22 -22,0 z M 44,902 l 22,0 0,22 -22,0 z M 66,902 l 22,0 0,22 -22,0 z M 88,902 l 22,0 0,22 -22,0 z M 132,902 l 22,0 0,22 -22,0 z M 176,902 l 22,0 0,22 -22,0 z M 198,902 l 22,0 0,22 -22,0 z M 220,902 l 22,0 0,22 -22,0 z M 330,902 l 22,0 0,22 -22,0 z M 374,902 l 22,0 0,22 -22,0 z M 418,902 l 22,0 0,22 -22,0 z M 440,902 l 22,0 0,22 -22,0 z M 506,902 l 22,0 0,22 -22,0 z M 550,902 l 22,0 0,22 -22,0 z M 572,902 l 22,0 0,22 -22,0 z M 594,902 l 22,0 0,22 -22,0 z M 616,902 l 22,0 0,22 -22,0 z M 660,902 l 22,0 0,22 -22,0 z M 704,902 l 22,0 0,22 -22,0 z M 748,902 l 22,0 0,22 -22,0 z M 770,902 l 22,0 0,22 -22,0 z M 792,902 l 22,0 0,22 -22,0 z M 880,902 l 22,0 0,22 -22,0 z M 902,902 l 22,0 0,22 -22,0 z M 924,902 l 22,0 0,22 -22,0 z M 0,924 l 22,0 0,22 -22,0 z M 44,924 l 22,0 0,22 -22,0 z M 66,924 l 22,0 0,22 -22,0 z M 88,924 l 22,0 0,22 -22,0 z M 132,924 l 22,0 0,22 -22,0 z M 176,924 l 22,0 0,22 -22,0 z M 220,924 l 22,0 0,22 -22,0 z M 308,924 l 22,0 0,22 -22,0 z M 374,924 l 22,0 0,22 -22,0 z M 418,924 l 22,0 0,22 -22,0 z M 440,924 l 22,0 0,22 -22,0 z M 550,924 l 22,0 0,22 -22,0 z M 572,924 l 22,0 0,22 -22,0 z M 594,924 l 22,0 0,22 -22,0 z M 616,924 l 22,0 0,22 -22,0 z M 638,924 l 22,0 0,22 -22,0 z M 704,924 l 22,0 0,22 -22,0 z M 814,924 l 22,0 0,22 -22,0 z M 836,924 l 22,0 0,22 -22,0 z M 880,924 l 22,0 0,22 -22,0 z M 902,924 l 22,0 0,22 -22,0 z M 0,946 l 22,0 0,22 -22,0 z M 132,946 l 22,0 0,22 -22,0 z M 220,946 l 22,0 0,22 -22,0 z M 242,946 l 22,0 0,22 -22,0 z M 264,946 l 22,0 0,22 -22,0 z M 330,946 l 22,0 0,22 -22,0 z M 352,946 l 22,0 0,22 -22,0 z M 374,946 l 22,0 0,22 -22,0 z M 396,946 l 22,0 0,22 -22,0 z M 418,946 l 22,0 0,22 -22,0 z M 462,946 l 22,0 0,22 -22,0 z M 528,946 l 22,0 0,22 -22,0 z M 550,946 l 22,0 0,22 -22,0 z M 572,946 l 22,0 0,22 -22,0 z M 594,946 l 22,0 0,22 -22,0 z M 616,946 l 22,0 0,22 -22,0 z M 660,946 l 22,0 0,22 -22,0 z M 704,946 l 22,0 0,22 -22,0 z M 770,946 l 22,0 0,22 -22,0 z M 858,946 l 22,0 0,22 -22,0 z M 880,946 l 22,0 0,22 -22,0 z M 902,946 l 22,0 0,22 -22,0 z M 924,946 l 22,0 0,22 -22,0 z M 0,968 l 22,0 0,22 -22,0 z M 22,968 l 22,0 0,22 -22,0 z M 44,968 l 22,0 0,22 -22,0 z M 66,968 l 22,0 0,22 -22,0 z M 88,968 l 22,0 0,22 -22,0 z M 110,968 l 22,0 0,22 -22,0 z M 132,968 l 22,0 0,22 -22,0 z M 220,968 l 22,0 0,22 -22,0 z M 242,968 l 22,0 0,22 -22,0 z M 264,968 l 22,0 0,22 -22,0 z M 286,968 l 22,0 0,22 -22,0 z M 374,968 l 22,0 0,22 -22,0 z M 396,968 l 22,0 0,22 -22,0 z M 418,968 l 22,0 0,22 -22,0 z M 484,968 l 22,0 0,22 -22,0 z M 506,968 l 22,0 0,22 -22,0 z M 550,968 l 22,0 0,22 -22,0 z M 572,968 l 22,0 0,22 -22,0 z M 594,968 l 22,0 0,22 -22,0 z M 616,968 l 22,0 0,22 -22,0 z M 682,968 l 22,0 0,22 -22,0 z M 704,968 l 22,0 0,22 -22,0 z M 726,968 l 22,0 0,22 -22,0 z M 748,968 l 22,0 0,22 -22,0 z M 792,968 l 22,0 0,22 -22,0 z M 814,968 l 22,0 0,22 -22,0 z M 836,968 l 22,0 0,22 -22,0 z M 924,968 l 22,0 0,22 -22,0 z M 946,968 l 22,0 0,22 -22,0 z " />
	</g>
</svg>
